<?xml version="1.0" encoding="utf-8"?>
<!-- Generator: Adobe Illustrator 16.0.0, SVG Export Plug-In . SVG Version: 6.00 Build 0)  -->
<!DOCTYPE svg PUBLIC "-//W3C//DTD SVG 1.1//EN" "http://www.w3.org/Graphics/SVG/1.1/DTD/svg11.dtd">
<svg version="1.1" id="Layer_1" xmlns="http://www.w3.org/2000/svg" xmlns:xlink="http://www.w3.org/1999/xlink" x="0px" y="0px"
	 width="224px" height="224px" viewBox="0 0 224 224" enable-background="new 0 0 224 224" xml:space="preserve">
<g>
	<path fill="#0A1732" d="M112,219.5C52.7241211,219.5,4.5,171.2753906,4.5,112C4.5,52.7241211,52.7241211,4.5,112,4.5
		c59.2753906,0,107.5,48.2241211,107.5,107.5C219.5,171.2753906,171.2753906,219.5,112,219.5z"/>
	<path fill="#FFFFFF" d="M112,9c56.7939453,0,103,46.2055664,103,103c0,56.7939453-46.2060547,103-103,103
		C55.2055664,215,9,168.7939453,9,112C9,55.2055664,55.2055664,9,112,9 M112,0C50.144043,0,0,50.144043,0,112
		c0,61.8554688,50.144043,112,112,112c61.8554688,0,112-50.1445313,112-112C224,50.144043,173.8554688,0,112,0L112,0z"/>
	<path fill="#0A1732" d="M112,6c58.4482422,0,106,47.5512695,106,106c0,58.4482422-47.5517578,106-106,106
		C53.5512695,218,6,170.4482422,6,112C6,53.5512695,53.5512695,6,112,6 M112,0C50.144043,0,0,50.144043,0,112
		c0,61.8554688,50.144043,112,112,112c61.8554688,0,112-50.1445313,112-112C224,50.144043,173.8554688,0,112,0L112,0z"/>
</g>
<g>
	<path fill="#FFFFFF" d="M91.0024414,41.4145508h49.0717773l4.9492188,0.5322266
		c8.0898438,0.887207,13.0927734,4.949707,15.0087891,12.1879883c1.3134766,4.9677734,1.9697266,9.5800781,1.9697266,13.8378906
		c0,11.105957-4.6308594,19.3022461-13.8916016,24.5888672l-11.0703125,4.7368164l24.8564453,81.8032227h-29.1142578
		l-25.6000977-80.6323242l-9.8461914,41.7260742l-28.4741211-0.0527344l15.0087891-67.5927734h49.0180664l3.40625-0.4790039
		l1.7558594-0.6918945l1.4375-0.9047852l0.7451172-1.5966797V67.546875l-0.7451172-1.5966797l-1.7558594-1.1708984
		l-1.9160156-0.5854492L85.6269531,63.980957L91.0024414,41.4145508z"/>
</g>
</svg>